<svg xmlns="http://www.w3.org/2000/svg" width="63" height="63" viewBox="0 0 63 63">
  <defs>
    <style>
      .cls-1 {
        fill-rule: evenodd;
      }
    </style>
  </defs>
  <path id="camera" class="cls-1" d="M1507.14,340.548a3.631,3.631,0,0,0-3.7.053l-7.73,4.663v-0.893a6.164,6.164,0,0,0-4.88-6.019,9.842,9.842,0,1,0-12.85-.133h-15.57a9.839,9.839,0,1,0-12.49.421,6.162,6.162,0,0,0-3.92,5.731V362.09a6.159,6.159,0,0,0,6.15,6.152h0.29a1.231,1.231,0,0,0,0-2.461h-0.29a3.7,3.7,0,0,1-3.69-3.691V346.832h12.02a1.231,1.231,0,1,0,0-2.461h-12.02a3.7,3.7,0,0,1,3.69-3.691h37.41a3.7,3.7,0,0,1,3.69,3.691V362.09a3.7,3.7,0,0,1-3.69,3.691h-28.18a1.231,1.231,0,0,0,0,2.461h1.94l-7.68,13.3h-8.34a1.231,1.231,0,0,0,0,2.461h47.18a1.231,1.231,0,0,0,0-2.461h-8.41l-7.68-13.3h11.17a6.158,6.158,0,0,0,6.15-6.152v-2.37l7.73,4.664a3.665,3.665,0,0,0,5.56-3.14v-17.5A3.634,3.634,0,0,0,1507.14,340.548Zm-51.23-2.329a7.379,7.379,0,1,1,7.38-7.379A7.387,7.387,0,0,1,1455.91,338.219Zm28.57,0a7.379,7.379,0,1,1,7.38-7.379A7.387,7.387,0,0,1,1484.48,338.219Zm-26,43.32,7.68-13.3h2.56l-7.67,13.3h-2.57Zm5.41,0,6.96-12.066,6.97,12.066h-13.93Zm19.34,0h-2.57l-7.67-13.3h2.56Zm22.7-19.245a1.194,1.194,0,0,1-1.22-.018l-9-5.429v-8.708l9-5.431a1.206,1.206,0,0,1,1.83,1.032v17.5h0A1.191,1.191,0,0,1,1505.93,362.294Zm-39.82-17.923h-0.01a1.231,1.231,0,0,0,0,2.461h0.01A1.231,1.231,0,0,0,1466.11,344.371Zm-10.2-17.346a3.815,3.815,0,1,0,3.81,3.815A3.818,3.818,0,0,0,1455.91,327.025Zm0,5.168a1.354,1.354,0,1,1,1.35-1.353A1.349,1.349,0,0,1,1455.91,332.193Zm28.57-5.168a3.815,3.815,0,1,0,3.82,3.815A3.818,3.818,0,0,0,1484.48,327.025Zm0,5.168a1.354,1.354,0,1,1,1.35-1.353A1.349,1.349,0,0,1,1484.48,332.193Zm-26.54,33.949a1.231,1.231,0,0,0-.87-0.361,1.248,1.248,0,0,0-.87.361,1.231,1.231,0,0,0,0,1.74,1.248,1.248,0,0,0,.87.361A1.231,1.231,0,0,0,1457.94,366.142Z" transform="translate(-1446 -321)"/>
</svg>
