<svg xmlns="http://www.w3.org/2000/svg" width="28" height="42" viewBox="0 0 28 42">
  <defs>
    <style>
      .cls-1 {
        fill-rule: evenodd;
      }
    </style>
  </defs>
  <path id="geo-lockation" class="cls-1" d="M887,5336a14.141,14.141,0,0,0-14,14.25c0,3.16,1.826,7.96,5.748,15.12,2.675,4.88,5.339,9.01,5.451,9.18l1.925,2.97a1.038,1.038,0,0,0,1.751,0l1.925-2.97c0.112-.17,2.756-4.26,5.452-9.18,3.922-7.15,5.748-11.96,5.748-15.12A14.141,14.141,0,0,0,887,5336Zm6.42,28.33c-2.658,4.85-5.261,8.87-5.37,9.04l-1.05,1.62-1.049-1.62c-0.111-.17-2.733-4.23-5.372-9.04-3.637-6.64-5.481-11.37-5.481-14.08a11.9,11.9,0,1,1,23.8,0C898.9,5352.96,897.058,5357.69,893.42,5364.33ZM887,5342.26a7.906,7.906,0,1,0,7.762,7.9A7.845,7.845,0,0,0,887,5342.26Zm0,13.67a5.766,5.766,0,1,1,5.664-5.77A5.725,5.725,0,0,1,887,5355.93Z" transform="translate(-873 -5336)"/>
</svg>
