<svg xmlns="http://www.w3.org/2000/svg" width="32" height="43" viewBox="0 0 32 43">
  <defs>
    <style>
      .cls-1 {
        fill-rule: evenodd;
      }
    </style>
  </defs>
  <path id="lock_" data-name="lock " class="cls-1" d="M1849.18,5384h-26.36a2.819,2.819,0,0,1-2.82-2.8v-24.31a2.813,2.813,0,0,1,2.82-2.8h0.94v-8.42a4.7,4.7,0,0,1,4.71-4.67h15.06a4.7,4.7,0,0,1,4.71,4.67v8.42h0.94a2.813,2.813,0,0,1,2.82,2.8v24.31A2.819,2.819,0,0,1,1849.18,5384Zm-2.83-38.33a2.813,2.813,0,0,0-2.82-2.8h-15.06a2.813,2.813,0,0,0-2.82,2.8v8.42h3.76v-6.55a0.937,0.937,0,0,1,.94-0.93h11.3a0.937,0.937,0,0,1,.94.93v6.55h3.76v-8.42Zm-15.06,2.81v5.61h9.42v-5.61h-9.42Zm18.83,8.41a0.937,0.937,0,0,0-.94-0.93h-26.36a0.93,0.93,0,0,0-.94.93v24.31a0.937,0.937,0,0,0,.94.93h26.36a0.943,0.943,0,0,0,.94-0.93v-24.31Zm-11.77,13.39a4.816,4.816,0,0,1-1.41.53v3.84h1.88a0.935,0.935,0,1,1,0,1.87h-5.64a0.935,0.935,0,1,1,0-1.87h1.88v-3.84a4.55,4.55,0,0,1-1.41-.53A4.71,4.71,0,1,1,1838.35,5370.28Zm-2.35-6.85a2.815,2.815,0,0,0-2.82,2.81,2.82,2.82,0,0,0,5.64,0A2.815,2.815,0,0,0,1836,5363.43Z" transform="translate(-1820 -5341)"/>
</svg>
