<svg width="120" height="20" viewBox="0 0 120 20" fill="none" xmlns="http://www.w3.org/2000/svg">
<path d="M33.4316 18.1017V6.0957L37.2956 6.0957C38.3576 6.0957 39.3056 6.33594 40.1516 6.81642C40.9976 7.2969 41.6576 7.97558 42.1316 8.85246C42.6056 9.72934 42.8457 10.7143 42.8517 11.8014V12.354C42.8517 13.4531 42.6176 14.438 42.1556 15.3089C41.6936 16.1798 41.0396 16.8645 40.1936 17.357C39.3476 17.8495 38.4116 18.0957 37.3736 18.1017H33.4316ZM36.3236 8.32994V15.8735H37.3316C38.1596 15.8735 38.7956 15.5792 39.2456 14.9846C39.6896 14.396 39.9116 13.5131 39.9116 12.348V11.8314C39.9116 10.6723 39.6896 9.7954 39.2456 9.20682C38.8016 8.61823 38.1536 8.32393 37.3016 8.32393L36.3236 8.32994Z" fill="white"/>
<path d="M48.4021 11.3031L50.6101 6.08984L53.7301 6.08984L49.8661 13.7835V18.0959H46.9321V13.7835L43.0801 6.09585L46.1881 6.09585L48.4021 11.3031Z" fill="white"/>
<path d="M64.6255 18.1017H61.7515L57.4975 10.6302V18.1017H54.6055V6.0957L57.4975 6.0957L61.7395 13.5672V6.0957L64.6255 6.0957V18.1017Z" fill="white"/>
<path d="M73.2478 15.8556L69.2878 15.8556L68.5978 18.0959H65.5078L69.9058 6.08984H72.6238L77.0578 18.0959H73.9498L73.2478 15.8556ZM69.9778 13.6214H72.5578L71.2618 9.45921L69.9778 13.6214Z" fill="white"/>
<path d="M81.7257 6.0957L84.4017 14.4501L87.0717 6.0957H90.8757V18.1017H87.9777V15.2969L88.2597 9.55516L85.3617 18.1017H83.4477L80.5377 9.54916L80.8197 15.2969V18.1017H77.9277V6.0957L81.7257 6.0957Z" fill="white"/>
<path d="M95.7962 18.1017H92.9102V6.0957L95.7962 6.0957V18.1017Z" fill="white"/>
<path d="M107.513 14.036C107.477 14.8708 107.249 15.6096 106.835 16.2522C106.421 16.8948 105.845 17.3873 105.101 17.7417C104.357 18.096 103.505 18.2702 102.551 18.2702C100.973 18.2702 99.7309 17.7537 98.8249 16.7267C97.9189 15.6997 97.4629 14.2462 97.4629 12.3723V11.7777C97.4629 10.6006 97.6669 9.57353 98.0749 8.69064C98.4829 7.80776 99.0709 7.12908 99.8449 6.6426C100.613 6.16212 101.501 5.92188 102.515 5.92188C103.973 5.92188 105.143 6.30626 106.025 7.07503C106.907 7.8438 107.411 8.90085 107.531 10.2462L104.645 10.2462C104.621 9.51347 104.441 8.99094 104.093 8.67263C103.745 8.35431 103.217 8.19214 102.509 8.19214C101.789 8.19214 101.261 8.46242 100.925 9.00296C100.589 9.5435 100.415 10.4024 100.397 11.5855V12.4324C100.397 13.7117 100.559 14.6306 100.877 15.1771C101.201 15.7297 101.753 16 102.539 16C103.205 16 103.709 15.8438 104.063 15.5315C104.417 15.2192 104.603 14.7207 104.621 14.036H107.513Z" fill="white"/>
<path d="M115.068 14.9069C115.068 14.4864 114.918 14.1561 114.618 13.9159C114.318 13.6816 113.79 13.4354 113.04 13.1831C112.29 12.9309 111.672 12.6846 111.192 12.4504C109.638 11.6876 108.858 10.6366 108.858 9.29725C108.858 8.63058 109.05 8.048 109.44 7.53749C109.83 7.02698 110.376 6.63058 111.084 6.3483C111.792 6.06602 112.59 5.92188 113.472 5.92188C114.336 5.92188 115.11 6.07803 115.794 6.38434C116.478 6.69064 117.012 7.12908 117.39 7.69965C117.768 8.27022 117.96 8.91887 117.96 9.6516L115.074 9.6516C115.074 9.16512 114.924 8.78073 114.624 8.51647C114.324 8.2462 113.922 8.11407 113.406 8.11407C112.89 8.11407 112.482 8.22818 112.182 8.45641C111.882 8.68464 111.732 8.97293 111.732 9.32728C111.732 9.63359 111.894 9.91587 112.224 10.1621C112.554 10.4144 113.13 10.6726 113.964 10.9369C114.792 11.2012 115.476 11.4894 116.01 11.7957C117.306 12.5465 117.954 13.5735 117.954 14.8888C117.954 15.9399 117.558 16.7627 116.766 17.3633C115.974 17.9639 114.888 18.2642 113.514 18.2642C112.542 18.2642 111.66 18.09 110.874 17.7417C110.088 17.3933 109.494 16.9129 109.092 16.3063C108.696 15.6996 108.492 14.9969 108.492 14.2102H111.39C111.39 14.8528 111.558 15.3273 111.888 15.6336C112.218 15.9399 112.758 16.09 113.508 16.09C113.988 16.09 114.366 15.9879 114.642 15.7837C114.93 15.5735 115.068 15.2852 115.068 14.9069Z" fill="white"/>
<path d="M11.8383 15.075L6.4983 15.075L5.5683 18.0961H1.4043L7.3323 1.92188L10.9983 1.92188L16.9743 18.1021H12.7803L11.8383 15.075ZM7.4283 12.066H10.9023L9.1563 6.45641L7.4283 12.066Z" fill="white"/>
<path d="M95.802 1.75977L92.916 1.75977V4.64866H95.802V1.75977Z" fill="#CE3636"/>
<path d="M17.0104 18.1021H12.7804L7.39844 1.92188L11.6104 1.92188L17.0104 18.1021Z" fill="#8D0808"/>
<path d="M23.1491 18.1021H18.9431L13.5371 1.92188L17.7491 1.92188L23.1491 18.1021Z" fill="#A71111"/>
<path d="M29.2917 18.1021H25.0797L19.6797 1.92188L23.8857 1.92188L29.2917 18.1021Z" fill="#CE3636"/>
</svg>
