<svg xmlns="http://www.w3.org/2000/svg" width="12" height="12" viewBox="0 0 12 12">
  <defs>
    <style>
      .cls-1 {
        fill-rule: evenodd;
      }
    </style>
  </defs>
  <path id="night" class="cls-1" d="M697.875,651.683a0.449,0.449,0,0,0-.477-0.124,4.841,4.841,0,0,1-1.536.241,4.573,4.573,0,0,1-4.717-4.4,4.314,4.314,0,0,1,2.067-3.637,0.388,0.388,0,0,0,.177-0.421,0.417,0.417,0,0,0-.356-0.306,4.338,4.338,0,0,0-.6-0.036,6.015,6.015,0,1,0,0,12,6.5,6.5,0,0,0,5.476-2.854A0.382,0.382,0,0,0,697.875,651.683Z" transform="translate(-686 -643)"/>
</svg>
