<svg xmlns="http://www.w3.org/2000/svg" width="63" height="63" viewBox="0 0 63 63">
  <defs>
    <style>
      .cls-1 {
        fill-rule: evenodd;
      }
    </style>
  </defs>
  <path id="online" class="cls-1" d="M1470.05,236.915a1.244,1.244,0,0,0-.87-0.361,1.231,1.231,0,1,0,0,2.461,1.247,1.247,0,0,0,.87-0.36A1.231,1.231,0,0,0,1470.05,236.915Zm23.88-37.271h-12.51a1.231,1.231,0,0,0,0,2.461h12.51a0.958,0.958,0,0,1,.96.954v9.259a1.235,1.235,0,0,0,2.47,0v-9.259A3.427,3.427,0,0,0,1493.93,199.644Zm-16.13.36a1.231,1.231,0,0,0-1.74,0A1.23,1.23,0,1,0,1477.8,200Zm15.75,32.654a8.453,8.453,0,0,0,2.54-6.035v-9.014a1.23,1.23,0,0,0-1.23-1.23h-8.95a6.738,6.738,0,0,0-6.73,6.73v3.514a8.439,8.439,0,0,0,2.5,6h-7.95v-2.507a9.2,9.2,0,0,0-8.05-9.11,6.375,6.375,0,0,0,1.44-4.04v-5.05c0-.049-0.01-0.1-0.01-0.145,0-.088.01-0.177,0.01-0.266v-3.195a1.239,1.239,0,0,0-1.24-1.231h-6.43a5.2,5.2,0,0,0-5.19,5.187v4.7a6.424,6.424,0,0,0,1.43,4.04,9.2,9.2,0,0,0-8.05,9.11v2.507h-4.18V203.059a0.958,0.958,0,0,1,.96-0.954h1.46a1.231,1.231,0,0,0,0-2.461h-1.46a3.419,3.419,0,0,0-3.42,3.415v36.48a3.419,3.419,0,0,0,3.42,3.415h18.73v5.687a6.168,6.168,0,0,0-5.54,6.128,1.23,1.23,0,0,0,1.23,1.231h43.93a1.23,1.23,0,0,0,1.23-1.231V244.037A11.437,11.437,0,0,0,1493.55,232.658Zm-11.91-6.035v-3.514a4.277,4.277,0,0,1,4.27-4.27h7.72v7.784A6,6,0,0,1,1481.64,226.623Zm-24.92-14.362a2.728,2.728,0,0,1,2.73-2.726h5.2V211.5a1.769,1.769,0,0,1-1.77,1.77h-6.16v-1.009Zm0,3.47h6.16a4.152,4.152,0,0,0,1.77-.39v1.62h0a3.965,3.965,0,1,1-7.93,0v-1.23Zm5.4,7.658h0l-1.43,1.436-1.44-1.436h2.87Zm-12.01,6.722a6.726,6.726,0,0,1,5.73-6.649l3.98,3.973a1.219,1.219,0,0,0,.87.361,1.236,1.236,0,0,0,.87-0.361l3.97-3.973a6.735,6.735,0,0,1,5.74,6.649v2.507h-21.16v-2.507Zm21.16,23.427h-10.99a3.708,3.708,0,0,1,3.49-2.468h7.5v2.468Zm0-9.5v4.572h-5.66v-5.655h5.71C1471.29,243.311,1471.27,243.671,1471.27,244.037Zm-26.85-3.544a0.958,0.958,0,0,1-.96-0.954v-4.46h32.15a11.513,11.513,0,0,0-3.78,5.414h-27.41Zm57.12,8.116h-9.41a1.231,1.231,0,0,0,0,2.461h9.41v2.468h-27.81v-9.5a8.968,8.968,0,0,1,8.91-8.958h9.94a8.969,8.969,0,0,1,8.96,8.959v4.572ZM1460.71,193a1.23,1.23,0,0,0-1.23,1.23v6.645a1.23,1.23,0,0,0,2.46,0V194.23A1.23,1.23,0,0,0,1460.71,193Zm10.43,4.827a1.229,1.229,0,0,0-1.74,0l-2.16,2.162a1.231,1.231,0,0,0,.87,2.1,1.215,1.215,0,0,0,.87-0.361l2.16-2.162A1.231,1.231,0,0,0,1471.14,197.827ZM1454.15,200l-2.18-2.184a1.231,1.231,0,1,0-1.74,1.741l2.18,2.183a1.236,1.236,0,0,0,.87.361A1.231,1.231,0,0,0,1454.15,200Zm34.35,48.966a1.209,1.209,0,0,0-.87-0.361,1.244,1.244,0,0,0-.87.361,1.23,1.23,0,0,0,0,1.739,1.244,1.244,0,0,0,.87.361,1.209,1.209,0,0,0,.87-0.361A1.207,1.207,0,0,0,1488.5,248.97Z" transform="translate(-1441 -193)"/>
</svg>
