<svg xmlns="http://www.w3.org/2000/svg" width="56" height="56" viewBox="0 0 56 56">
  <defs>
    <style>
      .cls-1 {
        fill-rule: evenodd;
      }
    </style>
  </defs>
  <path id="phot" class="cls-1" d="M87.218,2255.44a1.093,1.093,0,0,0-1.094,1.09A6.125,6.125,0,1,1,80,2250.41a1.1,1.1,0,0,0,0-2.19,8.31,8.31,0,1,0,8.312,8.31A1.093,1.093,0,0,0,87.218,2255.44ZM80,2252.81a3.72,3.72,0,1,0,3.719,3.72A3.724,3.724,0,0,0,80,2252.81Zm0,5.25a1.53,1.53,0,1,1,1.531-1.53A1.528,1.528,0,0,1,80,2258.06Zm26.906,6.35a1.093,1.093,0,0,0-1.094,1.09v3.5a4.818,4.818,0,0,1-4.813,4.81H59a4.818,4.818,0,0,1-4.812-4.81v-16.19H67.644a12.9,12.9,0,1,0,24.716,0h13.452v3.12a1.094,1.094,0,0,0,2.187,0v-11.87a7.008,7.008,0,0,0-7-7h-7.37l-0.853-3.22a5.086,5.086,0,0,0-4.906-3.78H73.2a5.086,5.086,0,0,0-4.906,3.78l-0.853,3.22H66.151v-0.69a3.244,3.244,0,0,0-3.244-3.24H61.319a3.244,3.244,0,0,0-3.244,3.24v0.76A7,7,0,0,0,52,2244.06V2269a7.008,7.008,0,0,0,7,7h42a7.008,7.008,0,0,0,7-7v-3.5A1.093,1.093,0,0,0,106.906,2264.41ZM70.413,2234.4a2.885,2.885,0,0,1,2.791-2.15H87.871a2.885,2.885,0,0,1,2.791,2.15l0.7,2.66H69.708Zm-10.151,1.97a1.063,1.063,0,0,1,1.057-1.06h1.588a1.063,1.063,0,0,1,1.057,1.06v0.69h-3.7v-0.69Zm-6.075,7.69A4.818,4.818,0,0,1,59,2239.25h42a4.818,4.818,0,0,1,4.813,4.81v6.57H91.479a12.87,12.87,0,0,0-6.415-5.97,1.093,1.093,0,1,0-.859,2.01,10.714,10.714,0,1,1-8.646.1,1.094,1.094,0,1,0-.907-1.99,12.923,12.923,0,0,0-6.12,5.85H54.187v-6.57Zm7.926-2.4a3.28,3.28,0,1,0,3.281,3.28A3.283,3.283,0,0,0,62.113,2241.66Zm0,4.37a1.1,1.1,0,1,1,1.094-1.09A1.094,1.094,0,0,1,62.113,2246.03Zm37.448-2.19H96.729a1.1,1.1,0,0,0,0,2.19h2.832A1.1,1.1,0,0,0,99.561,2243.84ZM79.987,2220a1.093,1.093,0,0,0-1.094,1.09v5.27a1.094,1.094,0,0,0,2.188,0v-5.27A1.093,1.093,0,0,0,79.987,2220Zm10.485,4.63a1.089,1.089,0,0,0-1.547,0l-2.147,2.15a1.086,1.086,0,0,0,0,1.54,1.095,1.095,0,0,0,1.547,0l2.147-2.14A1.1,1.1,0,0,0,90.472,2224.63Zm-17.237,2.18-2.147-2.14a1.091,1.091,0,0,0-1.547,1.54l2.147,2.15A1.095,1.095,0,1,0,73.235,2226.81Zm7.538,17.14a1.088,1.088,0,1,0,.319.77A1.076,1.076,0,0,0,80.773,2243.95Zm26.9,16.13a1.094,1.094,0,0,0-1.546,0A1.1,1.1,0,1,0,107.678,2260.08Z" transform="translate(-52 -2220)"/>
</svg>
