<svg xmlns="http://www.w3.org/2000/svg" width="60.031" height="60" viewBox="0 0 60.031 60">
  <defs>
    <style>
      .cls-1 {
        fill-rule: evenodd;
      }
    </style>
  </defs>
  <path id="rocket.svg" class="cls-1" d="M109.77,1198.22a1.134,1.134,0,0,0-.991-0.99,31.194,31.194,0,0,0-25.816,8.84l-7.589,7.56-10.955,1.4a1.184,1.184,0,0,0-.66.33L53.2,1225.87a1.136,1.136,0,0,0-.282,1.14,1.115,1.115,0,0,0,.88.78l7.986,1.47,1.569,1.57-3.341,1.8a1.132,1.132,0,0,0-.263,1.8l12.669,12.61a1.125,1.125,0,0,0,.805.34,0.921,0.921,0,0,0,.164-0.02,1.119,1.119,0,0,0,.837-0.58l1.809-3.32,1.569,1.56,1.479,7.95a1.139,1.139,0,0,0,.782.88,1.3,1.3,0,0,0,.338.05,1.165,1.165,0,0,0,.805-0.33l10.562-10.52a1.144,1.144,0,0,0,.324-0.66l1.413-10.91,7.59-7.56A30.889,30.889,0,0,0,109.77,1198.22Zm-47.816,28.77-5.616-1.04,8.757-8.72,7.642-.98Zm10.992,17.38-10.51-10.47,2.594-1.4,9.321,9.28Zm16.736-2.65-8.757,8.72-1.04-5.59,10.783-10.74Zm9.6-19.4-20.627,20.54-14.709-14.65,20.627-20.54a29.01,29.01,0,0,1,10.672-6.72,13.61,13.61,0,0,0,10.792,10.74A28.776,28.776,0,0,1,99.283,1222.32Zm7.441-12.81a11.33,11.33,0,0,1-9.29-9.25,29.316,29.316,0,0,1,10.171-.88A28.8,28.8,0,0,1,106.724,1209.51Zm-23.262,4.19a6.895,6.895,0,0,0,9.77,9.73h0a6.868,6.868,0,0,0,0-9.73A6.942,6.942,0,0,0,83.462,1213.7Zm8.16,8.12a4.61,4.61,0,1,1,0-6.52A4.647,4.647,0,0,1,91.622,1221.82Zm-26.83,20.41a1.148,1.148,0,0,0-1.611,0l-9.77,9.73a1.139,1.139,0,0,0,1.611,1.61l9.77-9.73A1.139,1.139,0,0,0,64.792,1242.23Zm1.5,3.1-4.4,4.39a1.126,1.126,0,0,0,0,1.6,1.148,1.148,0,0,0,1.611,0l4.4-4.38A1.139,1.139,0,0,0,66.3,1245.33Zm-5.943,6.39a1.137,1.137,0,1,0,1.051.7A1.156,1.156,0,0,0,60.352,1251.72Zm1.051,0.7c0.029,0.07-.027-0.07,0,0h0Zm-4.272,2.04-0.606.6a1.139,1.139,0,0,0,1.61,1.61l0.606-.61a1.126,1.126,0,0,0,0-1.6A1.147,1.147,0,0,0,57.131,1254.46Zm-0.821-9.98a1.147,1.147,0,0,0-1.611,0l-4.4,4.38a1.139,1.139,0,0,0,1.611,1.61l4.4-4.39A1.126,1.126,0,0,0,56.31,1244.48Zm1.818-.44a1.133,1.133,0,0,0,.857-0.98,1.137,1.137,0,1,0-2.083.51c-0.009-.01-0.016-0.02,0,0s0.013,0.02,0,.01A1.141,1.141,0,0,0,58.128,1244.04Zm2.945-2.7,0.606-.6a1.139,1.139,0,0,0-1.611-1.61l-0.606.61a1.126,1.126,0,0,0,0,1.6A1.147,1.147,0,0,0,61.073,1241.34Z" transform="translate(-49.969 -1197)"/>
</svg>
