<svg xmlns="http://www.w3.org/2000/svg" width="59" height="59" viewBox="0 0 59 59">
  <defs>
    <style>
      .cls-1 {
        fill-rule: evenodd;
      }
    </style>
  </defs>
  <path id="search" class="cls-1" d="M85.723,1017.89a1.155,1.155,0,1,0,1.153,1.16A1.157,1.157,0,0,0,85.723,1017.89Zm21.928,29.24-15.382-15.38a22.838,22.838,0,0,0,3.826-12.7,23.053,23.053,0,1,0-10.343,19.22L90,1042.52h0l11.129,11.13A4.61,4.61,0,0,0,107.65,1047.13Zm-22.442-11.29h0a20.754,20.754,0,1,1,4.632-4.63A20.8,20.8,0,0,1,85.208,1035.84Zm2.418,1.04a22.9,22.9,0,0,0,3.258-3.25l3.269,3.26a27.182,27.182,0,0,1-3.258,3.26Zm18.394,15.14a2.292,2.292,0,0,1-3.259,0l-10.232-10.23a29.887,29.887,0,0,0,3.258-3.26l10.233,10.23A2.306,2.306,0,0,1,106.02,1052.02Zm-32.973-51.41a18.435,18.435,0,1,0,18.438,18.44A18.458,18.458,0,0,0,73.047,1000.61Zm0,34.57a16.135,16.135,0,1,1,16.133-16.13A16.152,16.152,0,0,1,73.047,1035.18Zm12.914-21.08a13.829,13.829,0,0,0-12.914-8.88,1.15,1.15,0,1,0,0,2.3,11.606,11.606,0,0,1,10.762,7.41,1.165,1.165,0,0,0,1.076.74,1.2,1.2,0,0,0,.413-0.08A1.156,1.156,0,0,0,85.961,1014.1Z" transform="translate(-50 -996)"/>
</svg>
