<svg xmlns="http://www.w3.org/2000/svg" width="26" height="25" viewBox="0 0 26 25">
  <defs>
    <style>
      .cls-1 {
        fill-rule: evenodd;
      }
    </style>
  </defs>
  <path id="tel" class="cls-1" d="M138.236,5479.62a27.492,27.492,0,0,0,9.209,6.91,14.959,14.959,0,0,0,5.154,1.46c0.124,0,.243.01,0.368,0.01a4.379,4.379,0,0,0,3.309-1.36c0.006-.01.016-0.02,0.022-0.03a14.629,14.629,0,0,1,1.043-1.04c0.255-.23.514-0.47,0.763-0.72a2.427,2.427,0,0,0-.011-3.72l-3.25-3.12a2.679,2.679,0,0,0-1.9-.84,2.756,2.756,0,0,0-1.926.84l-1.935,1.85c-0.179-.1-0.363-0.19-0.536-0.27a5.778,5.778,0,0,1-.595-0.31,20.121,20.121,0,0,1-4.894-4.27,11.136,11.136,0,0,1-1.654-2.53c0.508-.44.984-0.9,1.443-1.35,0.163-.16.33-0.32,0.5-0.48a2.386,2.386,0,0,0,0-3.73l-1.612-1.54c-0.189-.18-0.367-0.36-0.551-0.54-0.357-.35-0.73-0.72-1.1-1.04a2.725,2.725,0,0,0-1.9-.8,2.827,2.827,0,0,0-1.926.8l-2.022,1.94a3.9,3.9,0,0,0-1.238,2.55,9.207,9.207,0,0,0,.751,4.14A23.959,23.959,0,0,0,138.236,5479.62Zm-3.926-11.22a2.673,2.673,0,0,1,.86-1.76l2.012-1.93a1.483,1.483,0,0,1,1-.44,1.408,1.408,0,0,1,.973.45c0.362,0.32.7,0.66,1.071,1.01,0.184,0.19.373,0.37,0.562,0.55l1.612,1.55a1.388,1.388,0,0,1,.508.97,1.369,1.369,0,0,1-.508.96c-0.168.17-.336,0.33-0.5,0.49-0.5.49-.974,0.95-1.493,1.39-0.011.01-.016,0.02-0.027,0.03a0.983,0.983,0,0,0-.27,1.15,0.163,0.163,0,0,1,.016.04,12.117,12.117,0,0,0,1.9,2.96,21.316,21.316,0,0,0,5.213,4.54c0.233,0.15.481,0.26,0.714,0.38a5.778,5.778,0,0,1,.595.31l0.059,0.03a1.149,1.149,0,0,0,.525.13,1.2,1.2,0,0,0,.8-0.35l2.023-1.94a1.458,1.458,0,0,1,.99-0.46,1.37,1.37,0,0,1,.957.46l3.261,3.12a1.214,1.214,0,0,1-.017,1.95c-0.227.23-.465,0.46-0.719,0.69a14.709,14.709,0,0,0-1.13,1.12,3.011,3.011,0,0,1-2.32.95c-0.092,0-.189-0.01-0.281-0.01a13.577,13.577,0,0,1-4.662-1.34,26.163,26.163,0,0,1-8.766-6.58,22.959,22.959,0,0,1-4.272-6.81A8.062,8.062,0,0,1,134.31,5468.4Z" transform="translate(-132.969 -5463)"/>
</svg>
