<svg xmlns="http://www.w3.org/2000/svg" width="46" height="59" viewBox="0 0 46 59">
  <defs>
    <style>
      .cls-1 {
        fill-rule: evenodd;
      }
    </style>
  </defs>
  <path id="cup" class="cls-1" d="M99.269,2023.44H98.753v-0.89a3.364,3.364,0,0,0-3.276-3.4h0L64.611,2017a3.39,3.39,0,0,0-3.367,3.4v3.04H60.73a3.754,3.754,0,0,0-3.73,3.77v4.81a3.754,3.754,0,0,0,3.73,3.77h0.117l3.61,36.81a3.39,3.39,0,0,0,3.367,3.4H92.233a3.364,3.364,0,0,0,1.309-.27,3.32,3.32,0,0,0,2.051-3.01l3.616-36.93H99.27a3.753,3.753,0,0,0,3.73-3.77v-4.81A3.756,3.756,0,0,0,99.269,2023.44Zm-35.538-3.04a0.874,0.874,0,0,1,.794-0.89l30.863,2.15a0.887,0.887,0,0,1,.88.89v0.89H63.731v-3.04ZM95.7,2045.78l-6.675,1.21a11.742,11.742,0,0,0-17.966,0l-6.7-1.21-1.008-9.99H96.707Zm-0.218,2.59-0.965,9.88-6.529-1.22-0.462.62a9.281,9.281,0,0,1-14.965,0l-0.463-.62-6.552,1.22-0.967-9.88,7.521,1.36,0.46-.62a9.281,9.281,0,0,1,14.965,0l0.46,0.62Zm-3.248,25.12H67.822a0.782,0.782,0,0,1-.338-0.08,1,1,0,0,1-.547-0.94l-0.016-.16-1.115-11.56,5.254-.97a11.755,11.755,0,0,0,17.961,0l5.23,0.97-1.139,11.85A0.9,0.9,0,0,1,92.231,2073.49Zm8.281-41.47a1.248,1.248,0,0,1-1.243,1.25H60.73a1.248,1.248,0,0,1-1.243-1.25v-4.81a1.25,1.25,0,0,1,1.243-1.26h38.54a1.25,1.25,0,0,1,1.243,1.26v4.81ZM80,2047.16a6.3,6.3,0,1,0,6.838,6.28A6.586,6.586,0,0,0,80,2047.16Zm0,10.05a3.809,3.809,0,1,1,4.351-3.77A4.1,4.1,0,0,1,80,2057.21Z" transform="translate(-57 -2017)"/>
</svg>
