<svg xmlns="http://www.w3.org/2000/svg" width="55" height="49" viewBox="0 0 55 49">
  <defs>
    <style>
      .cls-1 {
        fill-rule: evenodd;
      }
    </style>
  </defs>
  <path id="loudspeaker_" data-name="loudspeaker " class="cls-1" d="M100.287,2433.67v-8.92a2.724,2.724,0,0,0-1.341-2.37,2.663,2.663,0,0,0-2.712-.02,62.991,62.991,0,0,1-26.4,7.99c-0.072.01-8.526,0.05-8.526,0.05a4.164,4.164,0,0,0-4.121,3.69H55.446A3.466,3.466,0,0,0,52,2437.57v7.63a3.466,3.466,0,0,0,3.446,3.48h1.735a4.2,4.2,0,0,0,2.448,3.34l6.175,17.19a2.706,2.706,0,0,0,2.533,1.79h6.2a2.681,2.681,0,0,0,2.208-1.16,2.747,2.747,0,0,0,.325-2.49l-5.305-14.76a62.7,62.7,0,0,1,24.473,7.82,2.641,2.641,0,0,0,2.712-.03,2.708,2.708,0,0,0,1.342-2.36v-8.93A7.784,7.784,0,0,0,100.287,2433.67ZM57.151,2446H55.446a0.8,0.8,0,0,1-.788-0.8v-7.63a0.8,0.8,0,0,1,.788-0.8h1.705V2446Zm3.543,3.56a1.5,1.5,0,0,1-.885-1.37v-13.61h0a1.5,1.5,0,0,1,1.494-1.5h7.233v16.61H61.208A1.4,1.4,0,0,1,60.694,2449.56Zm13.875,18.71a0.022,0.022,0,0,1,0,.03,0.029,0.029,0,0,1-.031.02h-6.2a0.041,0.041,0,0,1-.035-0.02l-5.718-15.93h6.275Zm23.062-10.25a0.048,0.048,0,0,1-.029.05,0.06,0.06,0,0,1-.071,0,65.456,65.456,0,0,0-26.338-8.23v-16.91a65.6,65.6,0,0,0,26.338-8.23,0.06,0.06,0,0,1,.071,0,0.043,0.043,0,0,1,.029.05v33.27Zm2.657-11.64v-9.99A5.1,5.1,0,0,1,100.287,2446.38Z" transform="translate(-52 -2422)"/>
</svg>
