<svg xmlns="http://www.w3.org/2000/svg" width="14" height="15" viewBox="0 0 14 15">
  <defs>
    <style>
      .cls-1 {
        fill-rule: evenodd;
      }
    </style>
  </defs>
  <path id="sun" class="cls-1" d="M697.952,630.572l-1.479-2.076,1.479-2.077a0.273,0.273,0,0,0,.033-0.243,0.228,0.228,0,0,0-.164-0.167l-2.4-.8v-2.563a0.266,0.266,0,0,0-.107-0.218,0.236,0.236,0,0,0-.238-0.033l-2.4.787L691.2,621.1a0.278,0.278,0,0,0-.427,0l-1.479,2.077-2.4-.787a0.236,0.236,0,0,0-.238.033,0.263,0.263,0,0,0-.107.218v2.563l-2.4.8a0.226,0.226,0,0,0-.164.167,0.267,0.267,0,0,0,.033.243L685.5,628.5l-1.478,2.076a0.262,0.262,0,0,0-.033.243,0.229,0.229,0,0,0,.164.168l2.4,0.8v2.562a0.263,0.263,0,0,0,.107.218,0.234,0.234,0,0,0,.238.033l2.4-.787,1.479,2.077a0.264,0.264,0,0,0,.427,0l1.479-2.077,2.4,0.787a0.234,0.234,0,0,0,.238-0.033,0.266,0.266,0,0,0,.107-0.218v-2.562l2.4-.8a0.231,0.231,0,0,0,.164-0.168A0.265,0.265,0,0,0,697.952,630.572Zm-2.608-.205a4.84,4.84,0,0,1-1.011,1.541,4.754,4.754,0,0,1-1.511,1.03,4.617,4.617,0,0,1-3.673,0,4.754,4.754,0,0,1-1.511-1.03,4.9,4.9,0,0,1,0-6.825,4.754,4.754,0,0,1,1.511-1.03,4.617,4.617,0,0,1,3.673,0,4.754,4.754,0,0,1,1.511,1.03A4.888,4.888,0,0,1,695.344,630.367Z" transform="translate(-684 -621)"/>
</svg>
