<svg xmlns="http://www.w3.org/2000/svg" width="29" height="19" viewBox="0 0 29 19">
  <defs>
    <style>
      .cls-1 {
        fill-rule: evenodd;
      }
    </style>
  </defs>
  <path id="telegram" class="cls-1" d="M157.991,5565.55c0-.01,0-0.02.006-0.03a0.451,0.451,0,0,0-.005-0.11c0-.01,0-0.02,0-0.03a0.461,0.461,0,0,0-.049-0.13,0.034,0.034,0,0,0-.013-0.02c0-.01,0-0.01,0-0.01h0a0.186,0.186,0,0,0-.01-0.02,0.531,0.531,0,0,0-.107-0.11c-0.009,0-.019-0.01-0.029-0.01a0.28,0.28,0,0,0-.114-0.06c-0.018,0-.036-0.01-0.054-0.01a0.385,0.385,0,0,0-.107-0.01h-0.057c-0.013.01-.025,0-0.037,0.01l-28.033,5.7a0.478,0.478,0,0,0-.381.4,0.469,0.469,0,0,0,.253.48l8.032,4.17,1.409,7.69a0.134,0.134,0,0,0,0,.02,0.405,0.405,0,0,0,0,.11c0,0.02,0,.04.01,0.06a0.484,0.484,0,0,0,.053.12c0.005,0.01.005,0.02,0.01,0.03h0.006c0.006,0.01.015,0.02,0.022,0.03a0.347,0.347,0,0,0,.074.07c0,0.01.007,0.01,0.012,0.01s0.015,0.01.022,0.02a0.331,0.331,0,0,0,.093.04c0.013,0.01.025,0.01,0.038,0.02a0.611,0.611,0,0,0,.134.02H139.2a0.488,0.488,0,0,0,.344-0.15l5.35-3.51,5.6,3.58a0.5,0.5,0,0,0,.264.08,0.411,0.411,0,0,0,.152-0.03,0.471,0.471,0,0,0,.3-0.28l6.759-18.05c0.006-.02.011-0.03,0.016-0.05a0.062,0.062,0,0,1,0-.02C157.989,5565.56,157.99,5565.56,157.991,5565.55Zm-5.593,3.03-11.588,8.39c-0.018.01-.033,0.03-0.05,0.04s-0.012.01-.018,0.02l-0.028.03a0.41,0.41,0,0,0-.023.04,0.63,0.63,0,0,0-.045.09s-0.006.01-.008,0.01,0,0.01,0,.01l-1.328,4.25-1.052-5.75Zm-12.342,13.79,1.316-4.28,2.05,1.31,0.586,0.38-1.992,1.3Zm14.071-15.72-16.408,8.26-6.828-3.54Zm-3.615,16.15-7.44-4.75-1.127-.73,14.563-10.53Z" transform="translate(-129 -5565)"/>
</svg>
